<?xml version="1.0" standalone="no"?>
<!DOCTYPE svg PUBLIC "-//W3C//DTD SVG 20010904//EN"
 "http://www.w3.org/TR/2001/REC-SVG-20010904/DTD/svg10.dtd">
<svg version="1.0" xmlns="http://www.w3.org/2000/svg"
 width="512.000000pt" height="512.000000pt" viewBox="0 0 512.000000 512.000000"
 preserveAspectRatio="xMidYMid meet">

<g transform="translate(0.000000,512.000000) scale(0.100000,-0.100000)"
fill="#ffffff" stroke="none">
<path d="M480 4949 c-154 -31 -280 -160 -310 -318 -14 -74 -14 -3428 0 -3502
31 -166 163 -293 333 -321 57 -9 70 -9 92 6 38 25 51 58 36 95 -14 32 -43 47
-110 54 -61 7 -130 53 -166 111 l-30 49 0 1757 0 1757 30 49 c19 30 49 60 79
79 l49 30 877 0 877 0 49 -30 c30 -19 60 -49 79 -79 l30 -49 5 -931 c3 -512 9
-938 13 -948 13 -26 64 -43 92 -30 59 27 56 -26 53 988 -3 923 -3 929 -24 981
-45 110 -134 197 -244 240 -42 17 -107 18 -905 20 -473 0 -880 -3 -905 -8z"/>
<path d="M3009 4600 c-85 -65 -166 -130 -181 -143 -46 -41 -38 -70 50 -182
196 -251 205 -260 244 -263 47 -4 78 24 78 72 0 26 -15 53 -74 127 -41 52 -70
95 -65 97 4 2 47 -4 94 -13 178 -33 368 -113 535 -224 108 -71 263 -221 345
-331 121 -161 224 -391 259 -580 27 -142 31 -139 -81 -70 -121 75 -162 78
-188 17 -24 -58 -7 -78 158 -181 84 -53 166 -104 182 -116 41 -27 96 -26 122
3 45 50 233 366 233 391 0 33 -41 76 -72 76 -38 0 -63 -24 -120 -115 -29 -47
-56 -85 -60 -85 -5 0 -8 11 -8 25 0 37 -37 198 -66 285 -40 121 -147 327 -224
430 -157 209 -355 376 -575 485 -151 75 -249 109 -397 139 l-108 22 53 40
c105 79 127 104 127 140 0 44 -30 74 -74 74 -27 0 -60 -21 -187 -120z"/>
<path d="M1083 4628 c-32 -16 -48 -61 -34 -97 20 -47 42 -51 311 -51 164 0
258 4 274 11 55 26 55 112 0 138 -33 15 -520 14 -551 -1z"/>
<path d="M1103 2545 c-154 -42 -261 -155 -293 -311 -7 -33 -10 -335 -8 -905 3
-791 4 -857 21 -899 45 -113 142 -209 250 -247 49 -17 143 -18 1807 -18 1664
0 1758 1 1807 18 108 38 205 134 250 247 17 42 18 105 18 925 0 821 -1 883
-18 932 -38 108 -134 205 -247 250 -42 17 -144 18 -1790 20 -1482 2 -1753 0
-1797 -12z m3583 -180 c30 -19 60 -49 79 -79 l30 -49 0 -877 0 -877 -30 -49
c-19 -30 -49 -60 -79 -79 l-49 -30 -1757 0 -1757 0 -49 30 c-30 19 -60 49 -79
79 l-30 49 -3 856 c-2 572 0 868 7 892 18 59 64 114 122 143 l53 26 1746 -2
1747 -3 49 -30z"/>
<path d="M4524 1668 c-12 -5 -27 -21 -33 -34 -15 -34 -15 -514 0 -548 26 -55
112 -55 138 0 15 34 15 514 0 547 -11 24 -48 48 -72 46 -7 0 -22 -5 -33 -11z"/>
</g>
</svg>
